<svg xmlns="http://www.w3.org/2000/svg" width="960" height="540" viewBox="0 0 960 540">
<rect width="100%" height="100%" fill="#fbfcfe"/><text x="78" y="27" font-family="sans-serif" font-size="20">v3-s4-activity-span · joint — live verified loss</text>
<line x1="78" y1="472" x2="930" y2="472" stroke="#333"/><line x1="78" y1="42" x2="78" y2="472" stroke="#333"/>
<polyline points="78.00,71.66 143.54,195.49 209.08,246.74 274.62,254.88 340.15,244.69 405.69,280.31 471.23,273.77 536.77,303.27 602.31,321.99 667.85,331.86 733.38,318.68 798.92,348.83 864.46,349.74 930.00,349.19" fill="none" stroke="#3977b5" stroke-width="3"/><polyline points="78.00,284.04 143.54,317.80 209.08,326.36 274.62,332.86 340.15,364.28 405.69,342.81 471.23,391.60 536.77,393.87 602.31,405.99 667.85,353.43 733.38,377.23 798.92,442.34 864.46,394.73 930.00,360.44" fill="none" stroke="#d4562d" stroke-width="3"/>
<text x="78" y="515" font-family="sans-serif" font-size="15">completed epoch</text><text x="258" y="515" font-family="sans-serif" font-size="15" fill="#3977b5">train</text><text x="318" y="515" font-family="sans-serif" font-size="15" fill="#d4562d">validation</text>
<text x="78" y="495" font-family="sans-serif" font-size="14">best validation 6.255986 at epoch 11 · invariants and visualization QA pass · test events 0</text>
<text transform="translate(20 270.0) rotate(-90)" font-family="sans-serif" font-size="15">reported loss</text></svg>