<?xml version="1.0" encoding="utf-8" standalone="no"?>
<!DOCTYPE svg PUBLIC "-//W3C//DTD SVG 1.1//EN"
  "http://www.w3.org/Graphics/SVG/1.1/DTD/svg11.dtd">
<svg xmlns:xlink="http://www.w3.org/1999/xlink" width="966.69648pt" height="548.1pt" viewBox="0 0 966.69648 548.1" xmlns="http://www.w3.org/2000/svg" version="1.1">
 <metadata>
  <rdf:RDF xmlns:dc="http://purl.org/dc/elements/1.1/" xmlns:cc="http://creativecommons.org/ns#" xmlns:rdf="http://www.w3.org/1999/02/22-rdf-syntax-ns#">
   <cc:Work>
    <dc:type rdf:resource="http://purl.org/dc/dcmitype/StillImage"/>
    <dc:date>2026-07-28T08:30:03.997708</dc:date>
    <dc:format>image/svg+xml</dc:format>
    <dc:creator>
     <cc:Agent>
      <dc:title>Matplotlib v3.10.3, https://matplotlib.org/</dc:title>
     </cc:Agent>
    </dc:creator>
   </cc:Work>
  </rdf:RDF>
 </metadata>
 <defs>
  <style type="text/css">*{stroke-linejoin: round; stroke-linecap: butt}</style>
 </defs>
 <g id="figure_1">
  <g id="patch_1">
   <path d="M 0 548.1
L 966.69648 548.1
L 966.69648 0
L 0 0
z
" style="fill: #ffffff"/>
  </g>
  <g id="axes_1">
   <g id="patch_2">
    <path d="M 64.702706 177.282
L 901.993774 177.282
L 901.993774 143.8452
L 64.702706 143.8452
z
" clip-path="url(#p08e31d458f)" style="fill: #f4f7fa"/>
   </g>
   <g id="patch_3">
    <path d="M 92.926001 165.2076
C 95.670466 165.2076 98.302895 164.669347 100.243525 163.711384
C 102.184154 162.753422 103.274542 161.453964 103.274542 160.0992
C 103.274542 158.744436 102.184154 157.444978 100.243525 156.487016
C 98.302895 155.529053 95.670466 154.9908 92.926001 154.9908
C 90.181536 154.9908 87.549107 155.529053 85.608477 156.487016
C 83.667847 157.444978 82.57746 158.744436 82.57746 160.0992
C 82.57746 161.453964 83.667847 162.753422 85.608477 163.711384
C 87.549107 164.669347 90.181536 165.2076 92.926001 165.2076
z
" clip-path="url(#p08e31d458f)" style="fill: #16835b"/>
   </g>
   <g id="patch_4">
    <path d="M 64.702706 220.0068
L 901.993774 220.0068
L 901.993774 186.57
L 64.702706 186.57
z
" clip-path="url(#p08e31d458f)" style="fill: #ffffff"/>
   </g>
   <g id="patch_5">
    <path d="M 92.926001 207.9324
C 95.670466 207.9324 98.302895 207.394147 100.243525 206.436184
C 102.184154 205.478222 103.274542 204.178764 103.274542 202.824
C 103.274542 201.469236 102.184154 200.169778 100.243525 199.211816
C 98.302895 198.253853 95.670466 197.7156 92.926001 197.7156
C 90.181536 197.7156 87.549107 198.253853 85.608477 199.211816
C 83.667847 200.169778 82.57746 201.469236 82.57746 202.824
C 82.57746 204.178764 83.667847 205.478222 85.608477 206.436184
C 87.549107 207.394147 90.181536 207.9324 92.926001 207.9324
z
" clip-path="url(#p08e31d458f)" style="fill: #16835b"/>
   </g>
   <g id="patch_6">
    <path d="M 64.702706 262.7316
L 901.993774 262.7316
L 901.993774 229.2948
L 64.702706 229.2948
z
" clip-path="url(#p08e31d458f)" style="fill: #f4f7fa"/>
   </g>
   <g id="patch_7">
    <path d="M 92.926001 250.6572
C 95.670466 250.6572 98.302895 250.118947 100.243525 249.160984
C 102.184154 248.203022 103.274542 246.903564 103.274542 245.5488
C 103.274542 244.194036 102.184154 242.894578 100.243525 241.936616
C 98.302895 240.978653 95.670466 240.4404 92.926001 240.4404
C 90.181536 240.4404 87.549107 240.978653 85.608477 241.936616
C 83.667847 242.894578 82.57746 244.194036 82.57746 245.5488
C 82.57746 246.903564 83.667847 248.203022 85.608477 249.160984
C 87.549107 250.118947 90.181536 250.6572 92.926001 250.6572
z
" clip-path="url(#p08e31d458f)" style="fill: #16835b"/>
   </g>
   <g id="patch_8">
    <path d="M 64.702706 305.4564
L 901.993774 305.4564
L 901.993774 272.0196
L 64.702706 272.0196
z
" clip-path="url(#p08e31d458f)" style="fill: #ffffff"/>
   </g>
   <g id="patch_9">
    <path d="M 92.926001 293.382
C 95.670466 293.382 98.302895 292.843747 100.243525 291.885784
C 102.184154 290.927822 103.274542 289.628364 103.274542 288.2736
C 103.274542 286.918836 102.184154 285.619378 100.243525 284.661416
C 98.302895 283.703453 95.670466 283.1652 92.926001 283.1652
C 90.181536 283.1652 87.549107 283.703453 85.608477 284.661416
C 83.667847 285.619378 82.57746 286.918836 82.57746 288.2736
C 82.57746 289.628364 83.667847 290.927822 85.608477 291.885784
C 87.549107 292.843747 90.181536 293.382 92.926001 293.382
z
" clip-path="url(#p08e31d458f)" style="fill: #c47f00"/>
   </g>
   <g id="patch_10">
    <path d="M 64.702706 348.1812
L 901.993774 348.1812
L 901.993774 314.7444
L 64.702706 314.7444
z
" clip-path="url(#p08e31d458f)" style="fill: #f4f7fa"/>
   </g>
   <g id="patch_11">
    <path d="M 92.926001 336.1068
C 95.670466 336.1068 98.302895 335.568547 100.243525 334.610584
C 102.184154 333.652622 103.274542 332.353164 103.274542 330.9984
C 103.274542 329.643636 102.184154 328.344178 100.243525 327.386216
C 98.302895 326.428253 95.670466 325.89 92.926001 325.89
C 90.181536 325.89 87.549107 326.428253 85.608477 327.386216
C 83.667847 328.344178 82.57746 329.643636 82.57746 330.9984
C 82.57746 332.353164 83.667847 333.652622 85.608477 334.610584
C 87.549107 335.568547 90.181536 336.1068 92.926001 336.1068
z
" clip-path="url(#p08e31d458f)" style="fill: #b42318"/>
   </g>
   <g id="patch_12">
    <path d="M 64.702706 390.906
L 901.993774 390.906
L 901.993774 357.4692
L 64.702706 357.4692
z
" clip-path="url(#p08e31d458f)" style="fill: #ffffff"/>
   </g>
   <g id="patch_13">
    <path d="M 92.926001 378.8316
C 95.670466 378.8316 98.302895 378.293347 100.243525 377.335384
C 102.184154 376.377422 103.274542 375.077964 103.274542 373.7232
C 103.274542 372.368436 102.184154 371.068978 100.243525 370.111016
C 98.302895 369.153053 95.670466 368.6148 92.926001 368.6148
C 90.181536 368.6148 87.549107 369.153053 85.608477 370.111016
C 83.667847 371.068978 82.57746 372.368436 82.57746 373.7232
C 82.57746 375.077964 83.667847 376.377422 85.608477 377.335384
C 87.549107 378.293347 90.181536 378.8316 92.926001 378.8316
z
" clip-path="url(#p08e31d458f)" style="fill: #c47f00"/>
   </g>
   <g id="patch_14">
    <path d="M 64.702706 433.6308
L 901.993774 433.6308
L 901.993774 400.194
L 64.702706 400.194
z
" clip-path="url(#p08e31d458f)" style="fill: #f4f7fa"/>
   </g>
   <g id="patch_15">
    <path d="M 92.926001 421.5564
C 95.670466 421.5564 98.302895 421.018147 100.243525 420.060184
C 102.184154 419.102222 103.274542 417.802764 103.274542 416.448
C 103.274542 415.093236 102.184154 413.793778 100.243525 412.835816
C 98.302895 411.877853 95.670466 411.3396 92.926001 411.3396
C 90.181536 411.3396 87.549107 411.877853 85.608477 412.835816
C 83.667847 413.793778 82.57746 415.093236 82.57746 416.448
C 82.57746 417.802764 83.667847 419.102222 85.608477 420.060184
C 87.549107 421.018147 90.181536 421.5564 92.926001 421.5564
z
" clip-path="url(#p08e31d458f)" style="fill: #b42318"/>
   </g>
   <g id="text_1">
    <text style="font-weight: 700; font-size: 11px; font-family: 'DejaVu Sans'; text-anchor: start; fill: #102a43" x="118.326966" y="163.134512" transform="rotate(-0 118.326966 163.134512)">Structural execution</text>
   </g>
   <g id="text_2">
    <text style="font-weight: 700; font-size: 10px; font-family: 'DejaVu Sans'; text-anchor: start; fill: #16835b" x="351.639533" y="162.858575" transform="rotate(-0 351.639533 162.858575)">PASS</text>
   </g>
   <g id="text_3">
    <text style="font-size: 9px; font-family: 'DejaVu Sans'; text-anchor: start; fill: #627d98" x="502.16377" y="162.582637" transform="rotate(-0 502.16377 162.582637)">T4 runtime, real production data, finite gradients, checkpoint reload, invariant checks</text>
   </g>
   <g id="text_4">
    <text style="font-weight: 700; font-size: 11px; font-family: 'DejaVu Sans'; text-anchor: start; fill: #102a43" x="118.326966" y="205.859312" transform="rotate(-0 118.326966 205.859312)">Optimization continuation</text>
   </g>
   <g id="text_5">
    <text style="font-weight: 700; font-size: 10px; font-family: 'DejaVu Sans'; text-anchor: start; fill: #16835b" x="351.639533" y="205.583375" transform="rotate(-0 351.639533 205.583375)">PASS</text>
   </g>
   <g id="text_6">
    <text style="font-size: 9px; font-family: 'DejaVu Sans'; text-anchor: start; fill: #627d98" x="502.16377" y="205.307437" transform="rotate(-0 502.16377 205.307437)">All 4 calibrated families ended below their first completed validation loss</text>
   </g>
   <g id="text_7">
    <text style="font-weight: 700; font-size: 11px; font-family: 'DejaVu Sans'; text-anchor: start; fill: #102a43" x="118.326966" y="248.541144" transform="rotate(-0 118.326966 248.541144)">Resource feasibility</text>
   </g>
   <g id="text_8">
    <text style="font-weight: 700; font-size: 10px; font-family: 'DejaVu Sans'; text-anchor: start; fill: #16835b" x="351.639533" y="248.308175" transform="rotate(-0 351.639533 248.308175)">PASS</text>
   </g>
   <g id="text_9">
    <!-- On-demand T4, 25–62% memory headroom, conservative ledger $53.10 / $100 -->
    <g style="fill: #627d98" transform="translate(502.16377 248.0238)">
     <text>
      <tspan x="0" y="-0.15625" style="font-size: 9px; font-family: 'DejaVu Sans'; fill: #627d98">O</tspan>
      <tspan x="7.083984" y="-0.15625" style="font-size: 9px; font-family: 'DejaVu Sans'; fill: #627d98">n</tspan>
      <tspan x="12.788086" y="-0.15625" style="font-size: 9px; font-family: 'DejaVu Sans'; fill: #627d98">-</tspan>
      <tspan x="16.035645" y="-0.15625" style="font-size: 9px; font-family: 'DejaVu Sans'; fill: #627d98">d</tspan>
      <tspan x="21.748535" y="-0.15625" style="font-size: 9px; font-family: 'DejaVu Sans'; fill: #627d98">e</tspan>
      <tspan x="27.285645" y="-0.15625" style="font-size: 9px; font-family: 'DejaVu Sans'; fill: #627d98">m</tspan>
      <tspan x="36.052734" y="-0.15625" style="font-size: 9px; font-family: 'DejaVu Sans'; fill: #627d98">a</tspan>
      <tspan x="41.567871" y="-0.15625" style="font-size: 9px; font-family: 'DejaVu Sans'; fill: #627d98">n</tspan>
      <tspan x="47.271973" y="-0.15625" style="font-size: 9px; font-family: 'DejaVu Sans'; fill: #627d98">d</tspan>
      <tspan x="52.984863" y="-0.15625" style="font-size: 9px; font-family: 'DejaVu Sans'; fill: #627d98"> </tspan>
      <tspan x="55.845703" y="-0.15625" style="font-size: 9px; font-family: 'DejaVu Sans'; fill: #627d98">T</tspan>
      <tspan x="61.343262" y="-0.15625" style="font-size: 9px; font-family: 'DejaVu Sans'; fill: #627d98">4</tspan>
      <tspan x="67.069336" y="-0.15625" style="font-size: 9px; font-family: 'DejaVu Sans'; fill: #627d98">,</tspan>
      <tspan x="69.930176" y="-0.15625" style="font-size: 9px; font-family: 'DejaVu Sans'; fill: #627d98"> </tspan>
      <tspan x="72.791016" y="-0.15625" style="font-size: 9px; font-family: 'DejaVu Sans'; fill: #627d98">2</tspan>
      <tspan x="78.51709" y="-0.15625" style="font-size: 9px; font-family: 'DejaVu Sans'; fill: #627d98">5</tspan>
      <tspan x="88.743164" y="-0.15625" style="font-size: 9px; font-family: 'DejaVu Sans'; fill: #627d98">6</tspan>
      <tspan x="94.469238" y="-0.15625" style="font-size: 9px; font-family: 'DejaVu Sans'; fill: #627d98">2</tspan>
      <tspan x="100.195312" y="-0.15625" style="font-size: 9px; font-family: 'DejaVu Sans'; fill: #627d98">%</tspan>
      <tspan x="108.74707" y="-0.15625" style="font-size: 9px; font-family: 'DejaVu Sans'; fill: #627d98"> </tspan>
      <tspan x="111.60791" y="-0.15625" style="font-size: 9px; font-family: 'DejaVu Sans'; fill: #627d98">m</tspan>
      <tspan x="120.375" y="-0.15625" style="font-size: 9px; font-family: 'DejaVu Sans'; fill: #627d98">e</tspan>
      <tspan x="125.912109" y="-0.15625" style="font-size: 9px; font-family: 'DejaVu Sans'; fill: #627d98">m</tspan>
      <tspan x="134.679199" y="-0.15625" style="font-size: 9px; font-family: 'DejaVu Sans'; fill: #627d98">o</tspan>
      <tspan x="140.185547" y="-0.15625" style="font-size: 9px; font-family: 'DejaVu Sans'; fill: #627d98">r</tspan>
      <tspan x="143.885742" y="-0.15625" style="font-size: 9px; font-family: 'DejaVu Sans'; fill: #627d98">y</tspan>
      <tspan x="149.211914" y="-0.15625" style="font-size: 9px; font-family: 'DejaVu Sans'; fill: #627d98"> </tspan>
      <tspan x="152.072754" y="-0.15625" style="font-size: 9px; font-family: 'DejaVu Sans'; fill: #627d98">h</tspan>
      <tspan x="157.776855" y="-0.15625" style="font-size: 9px; font-family: 'DejaVu Sans'; fill: #627d98">e</tspan>
      <tspan x="163.313965" y="-0.15625" style="font-size: 9px; font-family: 'DejaVu Sans'; fill: #627d98">a</tspan>
      <tspan x="168.829102" y="-0.15625" style="font-size: 9px; font-family: 'DejaVu Sans'; fill: #627d98">d</tspan>
      <tspan x="174.541992" y="-0.15625" style="font-size: 9px; font-family: 'DejaVu Sans'; fill: #627d98">r</tspan>
      <tspan x="178.242188" y="-0.15625" style="font-size: 9px; font-family: 'DejaVu Sans'; fill: #627d98">o</tspan>
      <tspan x="183.748535" y="-0.15625" style="font-size: 9px; font-family: 'DejaVu Sans'; fill: #627d98">o</tspan>
      <tspan x="189.254883" y="-0.15625" style="font-size: 9px; font-family: 'DejaVu Sans'; fill: #627d98">m</tspan>
      <tspan x="198.021973" y="-0.15625" style="font-size: 9px; font-family: 'DejaVu Sans'; fill: #627d98">,</tspan>
      <tspan x="200.882812" y="-0.15625" style="font-size: 9px; font-family: 'DejaVu Sans'; fill: #627d98"> </tspan>
      <tspan x="203.743652" y="-0.15625" style="font-size: 9px; font-family: 'DejaVu Sans'; fill: #627d98">c</tspan>
      <tspan x="208.691895" y="-0.15625" style="font-size: 9px; font-family: 'DejaVu Sans'; fill: #627d98">o</tspan>
      <tspan x="214.198242" y="-0.15625" style="font-size: 9px; font-family: 'DejaVu Sans'; fill: #627d98">n</tspan>
      <tspan x="219.902344" y="-0.15625" style="font-size: 9px; font-family: 'DejaVu Sans'; fill: #627d98">s</tspan>
      <tspan x="224.591309" y="-0.15625" style="font-size: 9px; font-family: 'DejaVu Sans'; fill: #627d98">e</tspan>
      <tspan x="230.128418" y="-0.15625" style="font-size: 9px; font-family: 'DejaVu Sans'; fill: #627d98">r</tspan>
      <tspan x="233.828613" y="-0.15625" style="font-size: 9px; font-family: 'DejaVu Sans'; fill: #627d98">v</tspan>
      <tspan x="239.154785" y="-0.15625" style="font-size: 9px; font-family: 'DejaVu Sans'; fill: #627d98">a</tspan>
      <tspan x="244.669922" y="-0.15625" style="font-size: 9px; font-family: 'DejaVu Sans'; fill: #627d98">t</tspan>
      <tspan x="248.19873" y="-0.15625" style="font-size: 9px; font-family: 'DejaVu Sans'; fill: #627d98">i</tspan>
      <tspan x="250.699219" y="-0.15625" style="font-size: 9px; font-family: 'DejaVu Sans'; fill: #627d98">v</tspan>
      <tspan x="256.025391" y="-0.15625" style="font-size: 9px; font-family: 'DejaVu Sans'; fill: #627d98">e</tspan>
      <tspan x="261.5625" y="-0.15625" style="font-size: 9px; font-family: 'DejaVu Sans'; fill: #627d98"> </tspan>
      <tspan x="264.42334" y="-0.15625" style="font-size: 9px; font-family: 'DejaVu Sans'; fill: #627d98">l</tspan>
      <tspan x="266.923828" y="-0.15625" style="font-size: 9px; font-family: 'DejaVu Sans'; fill: #627d98">e</tspan>
      <tspan x="272.460938" y="-0.15625" style="font-size: 9px; font-family: 'DejaVu Sans'; fill: #627d98">d</tspan>
      <tspan x="278.173828" y="-0.15625" style="font-size: 9px; font-family: 'DejaVu Sans'; fill: #627d98">g</tspan>
      <tspan x="283.886719" y="-0.15625" style="font-size: 9px; font-family: 'DejaVu Sans'; fill: #627d98">e</tspan>
      <tspan x="289.423828" y="-0.15625" style="font-size: 9px; font-family: 'DejaVu Sans'; fill: #627d98">r</tspan>
      <tspan x="293.124023" y="-0.15625" style="font-size: 9px; font-family: 'DejaVu Sans'; fill: #627d98"> </tspan>
      <tspan x="295.984863" y="-0.15625" style="font-size: 9px; font-family: 'DejaVu Sans'; fill: #627d98">5</tspan>
      <tspan x="301.710938" y="-0.15625" style="font-size: 9px; font-family: 'DejaVu Sans'; fill: #627d98">3</tspan>
      <tspan x="307.437012" y="-0.15625" style="font-size: 9px; font-family: 'DejaVu Sans'; fill: #627d98">.</tspan>
      <tspan x="310.297852" y="-0.15625" style="font-size: 9px; font-family: 'DejaVu Sans'; fill: #627d98">1</tspan>
      <tspan x="316.023926" y="-0.15625" style="font-size: 9px; font-family: 'DejaVu Sans'; fill: #627d98">0</tspan>
      <tspan x="321.75" y="-0.15625" style="font-size: 9px; font-family: 'DejaVu Sans'; fill: #627d98">/</tspan>
      <tspan x="324.782227" y="-0.15625" style="font-size: 9px; font-family: 'DejaVu Sans'; fill: #627d98">1</tspan>
      <tspan x="330.508301" y="-0.15625" style="font-size: 9px; font-family: 'DejaVu Sans'; fill: #627d98">0</tspan>
      <tspan x="336.234375" y="-0.15625" style="font-size: 9px; font-family: 'DejaVu Sans'; fill: #627d98">0</tspan>
      <tspan x="84.243164" y="-0.15625" style="font-size: 9px; font-family: 'DejaVu Sans Display'; fill: #627d98">–</tspan>
     </text>
    </g>
   </g>
   <g id="text_10">
    <text style="font-weight: 700; font-size: 11px; font-family: 'DejaVu Sans'; text-anchor: start; fill: #102a43" x="118.326966" y="291.308912" transform="rotate(-0 118.326966 291.308912)">Fixed-sample visual QA</text>
   </g>
   <g id="text_11">
    <text style="font-weight: 700; font-size: 10px; font-family: 'DejaVu Sans'; text-anchor: start; fill: #c47f00" x="351.639533" y="291.032975" transform="rotate(-0 351.639533 291.032975)">MIXED</text>
   </g>
   <g id="text_12">
    <text style="font-size: 9px; font-family: 'DejaVu Sans'; text-anchor: start; fill: #627d98" x="502.16377" y="290.757037" transform="rotate(-0 502.16377 290.757037)">Some showers look credible; response, hit-count, and profile proxies are non-monotonic</text>
   </g>
   <g id="text_13">
    <text style="font-weight: 700; font-size: 11px; font-family: 'DejaVu Sans'; text-anchor: start; fill: #102a43" x="118.326966" y="333.990744" transform="rotate(-0 118.326966 333.990744)">Physics validation</text>
   </g>
   <g id="text_14">
    <text style="font-weight: 700; font-size: 10px; font-family: 'DejaVu Sans'; text-anchor: start; fill: #b42318" x="351.639533" y="333.757775" transform="rotate(-0 351.639533 333.757775)">NOT ESTABLISHED</text>
   </g>
   <g id="text_15">
    <text style="font-size: 9px; font-family: 'DejaVu Sans'; text-anchor: start; fill: #627d98" x="502.16377" y="333.481837" transform="rotate(-0 502.16377 333.481837)">Conditional distribution agreement, correlations, C2ST, and reconstruction closure not proven</text>
   </g>
   <g id="text_16">
    <text style="font-weight: 700; font-size: 11px; font-family: 'DejaVu Sans'; text-anchor: start; fill: #102a43" x="118.326966" y="376.715544" transform="rotate(-0 118.326966 376.715544)">Hardware portability</text>
   </g>
   <g id="text_17">
    <text style="font-weight: 700; font-size: 10px; font-family: 'DejaVu Sans'; text-anchor: start; fill: #c47f00" x="351.639533" y="376.482575" transform="rotate(-0 351.639533 376.482575)">QA NEEDED</text>
   </g>
   <g id="text_18">
    <text style="font-size: 9px; font-family: 'DejaVu Sans'; text-anchor: start; fill: #627d98" x="502.16377" y="376.206637" transform="rotate(-0 502.16377 376.206637)">Benchmark the intended backend; prior hardware measurements do not block training</text>
   </g>
   <g id="text_19">
    <text style="font-weight: 700; font-size: 11px; font-family: 'DejaVu Sans'; text-anchor: start; fill: #102a43" x="118.326966" y="419.483312" transform="rotate(-0 118.326966 419.483312)">Final test evaluation</text>
   </g>
   <g id="text_20">
    <text style="font-weight: 700; font-size: 10px; font-family: 'DejaVu Sans'; text-anchor: start; fill: #b42318" x="351.639533" y="419.207375" transform="rotate(-0 351.639533 419.207375)">SEALED</text>
   </g>
   <g id="text_21">
    <text style="font-size: 9px; font-family: 'DejaVu Sans'; text-anchor: start; fill: #627d98" x="502.16377" y="418.931437" transform="rotate(-0 502.16377 418.931437)">0 test events opened; final protocol and three-seed runs are not complete</text>
   </g>
  </g>
  <g id="text_22">
   <text style="font-weight: 700; font-size: 22px; font-family: 'DejaVu Sans'; text-anchor: start; fill: #102a43" x="56.15892" y="29.676562" transform="rotate(-0 56.15892 29.676562)">What the current evidence establishes — and what it does not</text>
  </g>
  <g id="text_23">
   <text style="font-size: 11px; font-family: 'DejaVu Sans'; text-anchor: start; fill: #627d98" x="56.15892" y="43.998281" transform="rotate(-0 56.15892 43.998281)">A concise claim boundary for deciding whether larger-cluster training is justified</text>
  </g>
  <g id="text_24">
   <text style="font-size: 8.5px; font-family: 'DejaVu Sans'; text-anchor: start; fill: #627d98" x="56.15892" y="533.372266" transform="rotate(-0 56.15892 533.372266)">Scientific integrity permits a negative conclusion. A structural pass must never be relabeled as Geant4 fidelity.</text>
  </g>
 </g>
 <defs>
  <clipPath id="p08e31d458f">
   <rect x="12.96" y="58.86" width="940.77648" height="464.4"/>
  </clipPath>
 </defs>
</svg>
