<svg xmlns="http://www.w3.org/2000/svg" width="960" height="540" viewBox="0 0 960 540">
<rect width="100%" height="100%" fill="#fbfcfe"/><text x="78" y="27" font-family="sans-serif" font-size="20">v3-sup · joint — live verified loss</text>
<line x1="78" y1="472" x2="930" y2="472" stroke="#333"/><line x1="78" y1="42" x2="78" y2="472" stroke="#333"/>
<polyline points="78.00,71.66 155.45,215.00 232.91,276.75 310.36,298.50 387.82,322.81 465.27,339.67 542.73,368.56 620.18,370.22 697.64,399.62 775.09,410.72 852.55,424.87 930.00,431.01" fill="none" stroke="#3977b5" stroke-width="3"/><polyline points="78.00,206.19 155.45,337.59 232.91,329.28 310.36,321.15 387.82,383.62 465.27,340.98 542.73,425.34 620.18,442.34 697.64,418.82 775.09,414.11 852.55,421.00 930.00,408.24" fill="none" stroke="#d4562d" stroke-width="3"/>
<text x="78" y="515" font-family="sans-serif" font-size="15">completed epoch</text><text x="258" y="515" font-family="sans-serif" font-size="15" fill="#3977b5">train</text><text x="318" y="515" font-family="sans-serif" font-size="15" fill="#d4562d">validation</text>
<text x="78" y="495" font-family="sans-serif" font-size="14">best validation 4.940159 at epoch 7 · invariants and visualization QA pass · test events 0</text>
<text transform="translate(20 270.0) rotate(-90)" font-family="sans-serif" font-size="15">reported loss</text></svg>